<svg width="628" height="386" viewBox="0 0 628 386" fill="none" xmlns="http://www.w3.org/2000/svg">
<rect x="31" y="36" width="98" height="219" rx="4" fill="white" stroke="#3A3836" stroke-width="2"/>
<rect x="483" y="36" width="98" height="219" rx="4" fill="white" stroke="#3A3836" stroke-width="2"/>
<rect x="333" y="36" width="98" height="219" rx="4" fill="white" stroke="#3A3836" stroke-width="2"/>
<path d="M372.26 171L373.07 168.512H377.006L377.816 171H380.287L376.527 160.091H373.555L369.789 171H372.26ZM373.656 166.712L374.998 162.584H375.083L376.426 166.712H373.656ZM381.6 171H383.907V167.463H385.846C388.355 167.463 389.814 165.966 389.814 163.788C389.814 161.62 388.381 160.091 385.904 160.091H381.6V171ZM383.907 165.615V161.977H385.462C386.794 161.977 387.439 162.701 387.439 163.788C387.439 164.869 386.794 165.615 385.473 165.615H383.907ZM393.619 160.091H391.312V171H393.619V160.091Z" fill="#3A3836"/>
<path d="M477.707 116.707C478.098 116.317 478.098 115.683 477.707 115.293L471.343 108.929C470.953 108.538 470.319 108.538 469.929 108.929C469.538 109.319 469.538 109.953 469.929 110.343L475.586 116L469.929 121.657C469.538 122.047 469.538 122.681 469.929 123.071C470.319 123.462 470.953 123.462 471.343 123.071L477.707 116.707ZM432 117H477V115H432V117Z" fill="#3A3836"/>
<path d="M436.293 175.771C435.902 176.162 435.902 176.795 436.293 177.185L442.657 183.549C443.047 183.94 443.681 183.94 444.071 183.549C444.462 183.159 444.462 182.526 444.071 182.135L438.414 176.478L444.071 170.822C444.462 170.431 444.462 169.798 444.071 169.407C443.681 169.017 443.047 169.017 442.657 169.407L436.293 175.771ZM482 175.478L437 175.478L437 177.478L482 177.478L482 175.478Z" fill="#3A3836"/>
<path d="M132.293 175.293C131.902 175.683 131.902 176.317 132.293 176.707L138.657 183.071C139.047 183.462 139.681 183.462 140.071 183.071C140.462 182.681 140.462 182.047 140.071 181.657L134.414 176L140.071 170.343C140.462 169.953 140.462 169.319 140.071 168.929C139.681 168.538 139.047 168.538 138.657 168.929L132.293 175.293ZM332 175L133 175L133 177L332 177L332 175Z" fill="#3A3836"/>
<path d="M329.707 116.707C330.098 116.317 330.098 115.683 329.707 115.293L323.343 108.929C322.953 108.538 322.319 108.538 321.929 108.929C321.538 109.319 321.538 109.953 321.929 110.343L327.586 116L321.929 121.657C321.538 122.047 321.538 122.681 321.929 123.071C322.319 123.462 322.953 123.462 323.343 123.071L329.707 116.707ZM130 117L329 117L329 115L130 115L130 117Z" fill="#3A3836"/>
<path d="M500.871 29.4046L509.276 32.1378L500.871 34.8823L498.138 43.2869L495.405 34.8823L487 32.1378L495.405 29.4046L498.138 21L500.871 29.4046Z" fill="white" stroke="#3A3836" stroke-width="2" stroke-miterlimit="10"/>
<path d="M29.8709 12.4046L38.2755 15.1378L29.8709 17.8823L27.1378 26.2869L24.4045 17.8823L16 15.1378L24.4045 12.4046L27.1378 4L29.8709 12.4046Z" fill="white" stroke="#3A3836" stroke-width="2" stroke-miterlimit="10"/>
<path d="M9.69144 40.865L15.5564 42.7782L9.69144 44.7028L7.77819 50.5678L5.86497 44.7028L0 42.7782L5.86497 40.865L7.77819 35L9.69144 40.865Z" fill="#3A3836"/>
<path d="M330.691 65.865L336.556 67.7782L330.691 69.7028L328.778 75.5678L326.865 69.7028L321 67.7782L326.865 65.865L328.778 60L330.691 65.865Z" fill="#3A3836"/>
<path d="M310.691 48.865L316.556 50.7782L310.691 52.7028L308.778 58.5678L306.865 52.7028L301 50.7782L306.865 48.865L308.778 43L310.691 48.865Z" fill="#3A3836"/>
<path d="M68.784 163.91C68.4803 161.391 66.5734 159.942 64.0485 159.942C61.1668 159.942 58.9668 161.977 58.9668 165.545C58.9668 169.104 61.1295 171.149 64.0485 171.149C66.845 171.149 68.5336 169.29 68.784 167.282L66.4509 167.271C66.2325 168.438 65.3163 169.109 64.0858 169.109C62.4292 169.109 61.3053 167.879 61.3053 165.545C61.3053 163.276 62.4132 161.982 64.1018 161.982C65.3642 161.982 66.2751 162.712 66.4509 163.91H68.784ZM72.6645 160.091H70.3953V171H72.6645V160.091ZM74.4822 171H76.7514V162.818H74.4822V171ZM75.6221 161.763C76.2986 161.763 76.8526 161.247 76.8526 160.613C76.8526 159.984 76.2986 159.468 75.6221 159.468C74.9509 159.468 74.397 159.984 74.397 160.613C74.397 161.247 74.9509 161.763 75.6221 161.763ZM82.2978 171.16C84.322 171.16 85.6856 170.174 86.0052 168.656L83.9065 168.518C83.6774 169.141 83.0915 169.466 82.3351 169.466C81.2005 169.466 80.4814 168.715 80.4814 167.495V167.49H86.0531V166.866C86.0531 164.086 84.3699 162.712 82.2073 162.712C79.7996 162.712 78.2389 164.422 78.2389 166.946C78.2389 169.54 79.7783 171.16 82.2978 171.16ZM80.4814 166.083C80.5293 165.151 81.2378 164.406 82.2445 164.406C83.23 164.406 83.9118 165.109 83.9171 166.083H80.4814ZM89.8031 166.27C89.8085 165.215 90.437 164.597 91.3532 164.597C92.2641 164.597 92.8127 165.194 92.8074 166.195V171H95.0766V165.79C95.0766 163.884 93.958 162.712 92.2534 162.712C91.0389 162.712 90.16 163.308 89.7925 164.262H89.6966V162.818H87.534V171H89.8031V166.27ZM101.217 162.818H99.6775V160.858H97.4083V162.818H96.2897V164.523H97.4083V168.784C97.3977 170.387 98.4897 171.181 100.136 171.112C100.722 171.091 101.137 170.973 101.366 170.899L101.009 169.21C100.897 169.232 100.658 169.285 100.445 169.285C99.9918 169.285 99.6775 169.114 99.6775 168.486V164.523H101.217V162.818Z" fill="#3A3836"/>
<path d="M58 131H79H96H102V136H74.5V131H63V136H58V131Z" fill="url(#paint0_linear_95_6378)"/>
<rect x="79" y="101" width="17" height="3" fill="url(#paint1_linear_95_6378)"/>
<rect x="63" y="127" width="11" height="3" fill="url(#paint2_linear_95_6378)"/>
<path d="M96 107H102V136H74" stroke="#6B6B6B" stroke-width="1.5" stroke-linecap="round" stroke-linejoin="round"/>
<path d="M63 136H58V107H79" stroke="#6B6B6B" stroke-width="1.5" stroke-linecap="round" stroke-linejoin="round"/>
<path d="M95 121H80C79.448 121 79 120.552 79 120V102C79 101.448 79.448 101 80 101H95C95.552 101 96 101.448 96 102V120C96 120.552 95.552 121 95 121Z" stroke="#6B6B6B" stroke-width="1.5" stroke-linecap="round" stroke-linejoin="round"/>
<path d="M73 143H64C63.448 143 63 142.552 63 142V128C63 127.448 63.448 127 64 127H73C73.552 127 74 127.448 74 128V142C74 142.552 73.552 143 73 143Z" stroke="#6B6B6B" stroke-width="1.5" stroke-linecap="round" stroke-linejoin="round"/>
<path d="M76 141L84 141" stroke="#6B6B6B" stroke-width="1.5" stroke-linecap="round" stroke-linejoin="round"/>
<path d="M80 141L80 136" stroke="#6B6B6B" stroke-width="1.5" stroke-linecap="round" stroke-linejoin="round"/>
<path d="M68 140H69" stroke="#6B6B6B" stroke-width="1.5" stroke-linecap="round" stroke-linejoin="round"/>
<path d="M86 118H89" stroke="#6B6B6B" stroke-width="1.5" stroke-linecap="round" stroke-linejoin="round"/>
<path d="M349.627 247.833C345.337 246.02 341.49 243.347 338.318 240.001C336.734 238.331 335.225 238.331 333.899 237.673C333.299 236.817 333.841 234.616 332.952 234.061C332.062 233.507 331.07 233.137 330.033 232.973C328.996 232.809 327.936 232.855 326.917 233.107C325.899 233.36 324.942 233.814 324.104 234.443C322.699 235.482 317.742 236.64 317.329 238.331C316.224 241.404 320.864 241.756 321.842 243.703C324.767 249.527 332.045 260.82 344.329 266.257C344.678 266.415 345.031 266.556 345.389 266.696C346.575 267.115 347.788 267.449 349.021 267.697L351.036 268.136" fill="white"/>
<path d="M349.627 247.833C345.337 246.02 341.49 243.347 338.318 240.001C336.734 238.331 335.225 238.331 333.899 237.673C333.299 236.817 333.841 234.616 332.952 234.061C332.062 233.507 331.07 233.137 330.033 232.973C328.996 232.809 327.936 232.855 326.917 233.107C325.899 233.36 324.942 233.814 324.104 234.443C322.699 235.482 317.742 236.64 317.329 238.331C316.224 241.404 320.864 241.756 321.842 243.703C324.767 249.527 332.045 260.82 344.329 266.257C344.678 266.415 345.031 266.556 345.389 266.696C346.575 267.115 347.788 267.449 349.021 267.697L351.036 268.136" stroke="#3A3836" stroke-width="2" stroke-linecap="round" stroke-linejoin="round"/>
<rect x="351" y="240" width="42" height="57" fill="white"/>
<rect x="355" y="240" width="42" height="32" fill="white"/>
<path d="M405 263L397 253.5L392.5 261.5L394.5 272L398.5 279.5L411.5 276L410 271.5L405 263Z" fill="white"/>
<rect x="398" y="274" width="15" height="7" fill="white"/>
<circle cx="406" cy="281" r="7" fill="white"/>
<path d="M354.493 257.197C354.493 257.197 369.765 262.655 380.765 250.852C380.765 250.852 369.357 260.672 354.95 252.683L354.493 257.197Z" fill="#E4E4E4"/>
<path d="M373.16 300.934L372.944 323.197C372.448 327.897 368.325 330.358 363.403 330.358C358.417 330.358 354.262 327.818 353.848 323.047C352.632 309.155 350.538 279.386 351.144 250.16" fill="white"/>
<path d="M373.16 300.934L372.944 323.197C372.448 327.897 368.325 330.358 363.403 330.358C358.417 330.358 354.262 327.818 353.848 323.047C352.632 309.155 350.538 279.386 351.144 250.16" stroke="#3A3836" stroke-width="2" stroke-linecap="round" stroke-linejoin="round"/>
<path d="M388.42 265.37L394.425 285.948L404.041 319.701C405.326 325.375 401.065 329.667 395.3 329.667H394.644C392.789 329.667 390.98 329.084 389.465 327.999C387.95 326.914 386.805 325.38 386.187 323.608L376.855 301.905L371.086 299.819" fill="white"/>
<path d="M388.42 265.37L394.425 285.948L404.041 319.701C405.326 325.375 401.065 329.667 395.3 329.667H394.644C392.789 329.667 390.98 329.084 389.465 327.999C387.95 326.914 386.805 325.38 386.187 323.608L376.855 301.905L371.086 299.819" stroke="#3A3836" stroke-width="2" stroke-linecap="round" stroke-linejoin="round"/>
<path d="M355.185 252.926C354.967 252.999 354.939 264.034 351.728 269.518" stroke="#3A3836" stroke-width="2" stroke-linecap="round" stroke-linejoin="round"/>
<path d="M389.752 246.704C389.752 246.704 382.815 255.48 388.596 265.37" stroke="#3A3836" stroke-width="2" stroke-linecap="round" stroke-linejoin="round"/>
<path d="M382.605 249.469C382.115 251.818 380.45 264.807 389.061 268.827" stroke="#3A3836" stroke-width="2" stroke-linecap="round" stroke-linejoin="round"/>
<path d="M397.009 251.543L397.357 245.763C397.356 244.945 397.05 244.161 396.507 243.583C395.964 243.005 395.227 242.681 394.46 242.681L387.678 242.556" stroke="#3A3836" stroke-width="2" stroke-linecap="round" stroke-linejoin="round"/>
<path d="M386.987 245.321C386.987 245.321 404.158 253.155 412.941 279.269C413.232 280.181 413.324 281.143 413.213 282.092C413.101 283.042 412.788 283.958 412.293 284.781C411.798 285.604 411.132 286.316 410.339 286.871C409.546 287.427 408.643 287.812 407.689 288.004C404.335 288.7 401.31 287.381 400.068 284.248C398.196 279.512 394.089 270.595 388.633 265.968" stroke="#3A3836" stroke-width="2" stroke-linecap="round" stroke-linejoin="round"/>
<path d="M372.951 266.062H377.517C377.783 266.062 377.999 265.826 377.999 265.534V260.367C377.999 260.076 377.783 259.839 377.517 259.839H372.951C372.684 259.839 372.469 260.076 372.469 260.367V265.534C372.469 265.826 372.684 266.062 372.951 266.062Z" stroke="#3A3836" stroke-width="2" stroke-linecap="round" stroke-linejoin="round"/>
<path d="M393.209 271.593V274.462C393.209 274.985 393.064 275.486 392.804 275.855C392.545 276.224 392.193 276.432 391.827 276.432" stroke="#3A3836" stroke-width="2" stroke-linecap="round" stroke-linejoin="round"/>
<path d="M328.855 208.829C329.831 208.829 330.622 208.038 330.622 207.062C330.622 206.086 329.831 205.295 328.855 205.295C327.879 205.295 327.088 206.086 327.088 207.062C327.088 208.038 327.879 208.829 328.855 208.829Z" fill="#E4E4E4" stroke="#3A3836" stroke-width="2" stroke-linecap="round" stroke-linejoin="round"/>
<rect x="305" y="233.126" width="47.2684" height="4.85937" rx="2.42968" fill="#E4E4E4" stroke="#3A3836" stroke-width="2"/>
<path d="M349.618 233.126C349.618 233.126 340.323 233.126 328.857 233.126C317.391 233.126 307.888 232.905 308.096 233.126C308.096 220.927 317.391 211.038 328.857 211.038C340.323 211.038 349.618 220.927 349.618 233.126Z" fill="#E4E4E4" stroke="#3A3836" stroke-width="2" stroke-linejoin="round"/>
<path d="M328.855 208.829L328.855 211.038" stroke="#3A3836" stroke-width="2" stroke-linecap="round"/>
<path d="M371.594 255.118C382.057 252.911 390.444 243.421 390.444 232.492C390.19 226.46 387.566 220.757 383.121 216.576C378.675 212.396 372.753 210.062 366.592 210.062C360.431 210.062 354.509 212.396 350.063 216.576C345.618 220.757 342.994 226.46 342.74 232.492C342.74 242.79 350.348 251.618 359.82 254.708C359.82 254.708 364.45 256.615 371.594 255.118Z" fill="white" stroke="#3A3836" stroke-width="2" stroke-linecap="round" stroke-linejoin="round"/>
<path d="M380.419 237.025C382.519 237.025 384.222 235.322 384.222 233.222C384.222 231.122 382.519 229.42 380.419 229.42C378.319 229.42 376.617 231.122 376.617 233.222C376.617 235.322 378.319 237.025 380.419 237.025Z" stroke="#3A3836" stroke-width="2" stroke-linecap="round" stroke-linejoin="round"/>
<path d="M345.505 222.464C347.797 221.879 350.424 221.598 355.748 222.011C365.003 222.695 368.838 226.452 370.367 228.944C371.103 230.141 371.187 232.538 371.002 233.929C370.367 238.742 368.939 250.521 349.199 247.638" stroke="#3A3836" stroke-width="2" stroke-linecap="round" stroke-linejoin="round"/>
<path d="M366.938 205.914V209.37" stroke="#3A3836" stroke-width="2" stroke-linecap="round" stroke-linejoin="round"/>
<path d="M366.938 205.914C368.847 205.914 370.394 204.366 370.394 202.457C370.394 200.548 368.847 199 366.938 199C365.029 199 363.481 200.548 363.481 202.457C363.481 204.366 365.029 205.914 366.938 205.914Z" fill="#FF8E64" stroke="#3A3836" stroke-width="2" stroke-linecap="round" stroke-linejoin="round"/>
<path d="M325.598 213.112C325.598 213.112 314.827 215.005 312.469 225.721C312.469 225.721 314.838 218.726 322.393 216.572C322.393 216.572 322.736 215.626 323.595 214.767C324.453 213.909 325.598 213.112 325.598 213.112Z" fill="#B4B4B4"/>
<path d="M393.778 100.5C393.599 100.19 393.269 100 392.912 100H371.067C370.709 100 370.379 100.191 370.201 100.5L359.288 119.418C359.11 119.727 359.11 120.108 359.288 120.417L370.201 139.335C370.379 139.644 370.709 139.835 371.067 139.835H392.912C393.269 139.835 393.599 139.645 393.778 139.335L404.711 120.418C404.89 120.108 404.89 119.727 404.711 119.417L393.778 100.5Z" stroke="#6B6B6B" stroke-width="1.5" stroke-linecap="round" stroke-linejoin="round"/>
<path d="M388.673 109.693C388.493 109.388 388.165 109.2 387.811 109.2H376.178C375.823 109.2 375.495 109.388 375.315 109.694L369.519 119.579C369.336 119.891 369.336 120.278 369.519 120.591L375.315 130.475C375.495 130.782 375.823 130.97 376.178 130.97H387.811C388.165 130.97 388.493 130.782 388.673 130.476L394.48 120.591C394.664 120.279 394.664 119.891 394.48 119.578L388.673 109.693Z" fill="url(#paint3_linear_95_6378)" stroke="#6B6B6B" stroke-width="1.5" stroke-linecap="round" stroke-linejoin="round"/>
<path d="M132 278H130.853L131.009 279.136L131.833 285.136L131.951 286H132.823H176C178.209 286 180 284.209 180 282C180 279.791 178.209 278 176 278H132Z" fill="#D1DAFA" stroke="#3A3836" stroke-width="2"/>
<path d="M91.5 261C93.5 258.6 95.6667 259.333 96.5 260L94.5 257L90.5 252L88 243C87.6667 236.5 90.5 222.6 104.5 219C122 214.5 132.5 227.5 134 237C135.2 244.6 131.833 251.5 130 254L128 257L135.5 263.5L142.5 271H146.5L150 273.5V277H136.5L132.5 276L133 287.5L138.5 288L141 288.5L145 293V319.5L144.5 326L141 330H135.5L131 325.5L130 318.5L131 313C132 311.833 134 308.9 134 306.5C134 304.1 131.333 302.833 130 302.5H97.5C96.5 302.333 94.1 301.4 92.5 299C90.9 296.6 91.8333 294.667 92.5 294L90.5 292.5L90 289C89.6667 280.667 89.5 263.4 91.5 261Z" fill="white"/>
<path d="M119.906 264.273C119.906 264.273 126.34 261.434 128.012 257.37L126.319 256.938C126.319 256.938 122.16 262.487 114.877 262.759C114.877 262.759 119.85 261.266 121.294 265.926L119.906 264.273Z" fill="#E4E4E4"/>
<path d="M125.777 258.695C129.438 255.679 132.089 251.61 133.371 247.036C134.653 242.462 134.505 237.603 132.947 233.117C131.388 228.63 128.495 224.73 124.657 221.944C120.819 219.157 116.221 217.618 111.483 217.535C106.745 217.451 102.096 218.826 98.1618 221.475C94.228 224.124 91.1992 227.918 89.484 232.347C87.7688 236.776 87.4499 241.626 88.5701 246.243C89.6903 250.859 92.1959 255.02 95.7487 258.164L96.7775 259.012" stroke="#3A3836" stroke-width="2" stroke-linecap="round" stroke-linejoin="round"/>
<path d="M95.8643 218.222C97.5825 218.222 98.9754 216.829 98.9754 215.111C98.9754 213.393 97.5825 212 95.8643 212C94.1461 212 92.7532 213.393 92.7532 215.111C92.7532 216.829 94.1461 218.222 95.8643 218.222Z" fill="#FF8E64" stroke="#3A3836" stroke-width="2" stroke-linecap="round" stroke-linejoin="round"/>
<path d="M132.161 247.259C124.789 246.396 119.716 240.354 119.716 232.931C119.716 228.589 121.323 225.02 124.426 222.37" stroke="#3A3836" stroke-width="2" stroke-linecap="round" stroke-linejoin="round"/>
<path d="M132.16 275.605C132.16 275.605 127.669 285.473 119.025 284.529" stroke="#3A3836" stroke-width="2" stroke-linecap="round" stroke-linejoin="round"/>
<path d="M132.161 284.593C132.161 284.593 127.923 291.198 118.333 290.797" stroke="#3A3836" stroke-width="2" stroke-linecap="round" stroke-linejoin="round"/>
<path d="M97.5927 218.222L98.9754 220.988" stroke="#3A3836" stroke-width="2" stroke-linecap="round" stroke-linejoin="round"/>
<path d="M112.111 247.259C114.02 247.259 115.568 245.866 115.568 244.148C115.568 242.43 114.02 241.037 112.111 241.037C110.202 241.037 108.654 242.43 108.654 244.148C108.654 245.866 110.202 247.259 112.111 247.259Z" stroke="#3A3836" stroke-width="2" stroke-linecap="round" stroke-linejoin="round"/>
<path d="M116.951 263.469C116.951 263.469 122.878 261.448 125.938 258.63" stroke="#3A3836" stroke-width="2" stroke-linecap="round" stroke-linejoin="round"/>
<path d="M124.556 302.568H99.957C95.5974 302.568 92.0618 301.475 92.0618 297.136V294.963" stroke="#3A3836" stroke-width="2" stroke-linecap="round" stroke-linejoin="round"/>
<path d="M128.555 302.568H99.1245C95.9875 302.568 93.4445 305.044 93.4445 308.099C93.4445 311.153 95.9875 313.63 99.1245 313.63H128.555C131.692 313.63 134.235 311.153 134.235 308.099C134.235 305.044 131.692 302.568 128.555 302.568Z" fill="#D1DAFA" stroke="#3A3836" stroke-width="2" stroke-linecap="round" stroke-linejoin="round"/>
<path d="M129.086 313.505V322.746C129.094 324.731 129.899 326.633 131.327 328.034C132.755 329.435 134.984 330.222 137 330.222C139.013 330.222 141.649 329.435 143.073 328.033C144.496 326.631 145.296 324.729 145.296 322.746V295.654C145.296 289.939 140.595 287.732 134.796 287.732L132.471 287.653L132.022 275.605" stroke="#3A3836" stroke-width="2" stroke-linecap="round" stroke-linejoin="round"/>
<path d="M122.938 314.321V322.969C122.938 324.893 122.137 326.738 120.711 328.098C119.285 329.458 116.517 330.222 114.5 330.222C112.483 330.222 110.382 329.458 108.956 328.098C107.53 326.738 106.728 324.893 106.728 322.969L106.93 314.488" fill="white"/>
<path d="M122.938 314.321V322.969C122.938 324.893 122.137 326.738 120.711 328.098C119.285 329.458 116.517 330.222 114.5 330.222C112.483 330.222 110.382 329.458 108.956 328.098C107.53 326.738 106.728 324.893 106.728 322.969L106.93 314.488" stroke="#3A3836" stroke-width="2" stroke-linecap="round" stroke-linejoin="round"/>
<path d="M95.5117 259.296L114.437 259.836C117.42 259.947 119.699 262.269 119.596 265.098L118.696 289.917C118.589 292.79 116.073 295.13 113.033 295.179L95.1362 294.666C92.0527 294.71 89.6098 292.374 89.6809 289.462L89.5603 264.612C89.6311 261.607 92.3514 259.184 95.5196 259.294L95.5117 259.296Z" fill="white" stroke="#3A3836" stroke-width="2" stroke-linecap="round" stroke-linejoin="round"/>
<path d="M96.8686 259.292L96.814 267.202C96.8022 269.019 98.2281 270.513 100.037 270.586L119.332 270.999" stroke="#3A3836" stroke-width="2" stroke-linecap="round" stroke-linejoin="round"/>
<path d="M103.287 279.497C102.251 279.471 101.433 278.618 101.458 277.582C101.476 276.548 102.337 275.728 103.373 275.753C104.409 275.778 105.227 276.632 105.202 277.668C105.176 278.704 104.323 279.522 103.295 279.494L103.287 279.497Z" fill="#FC8653" stroke="#3A3836" stroke-width="2" stroke-miterlimit="10"/>
<path d="M108.946 279.617C107.91 279.592 107.092 278.739 107.117 277.703C107.135 276.669 107.996 275.849 109.032 275.874C110.068 275.899 110.886 276.753 110.861 277.789C110.836 278.825 109.982 279.643 108.954 279.615L108.946 279.617Z" fill="#FC8653" stroke="#3A3836" stroke-width="2" stroke-miterlimit="10"/>
<path d="M118.796 276.166L114.512 276.078C113.697 276.059 113.026 276.894 113 277.989C112.975 279.059 113.617 279.944 114.43 279.956L118.714 280.044" stroke="#3A3836" stroke-width="2" stroke-linecap="round" stroke-linejoin="round"/>
<path d="M118.64 283.556L95.3589 283.462C94.5439 283.443 93.869 284.296 93.8467 285.373C93.8243 286.451 94.4636 287.328 95.2764 287.339L118.557 287.434" stroke="#3A3836" stroke-width="2" stroke-linecap="round" stroke-linejoin="round"/>
<path d="M128 257.5C129.833 258 132.5 260 134.5 262.5C136.5 265 141 268.5 143 269.5C145.03 270.515 147.4 270.8 149 272C151 273.5 151 277 150.5 277.5" stroke="#3A3836" stroke-width="2" stroke-linecap="round"/>
<path d="M132 275C132.381 276 133.714 278 136 278" stroke="#3A3836" stroke-width="2" stroke-linecap="round"/>
<rect x="181" y="159" width="100" height="33" rx="4" fill="white" stroke="#3A3836" stroke-width="2"/>
<rect x="181" y="99" width="100" height="33" rx="4" fill="white" stroke="#3A3836" stroke-width="2"/>
<path d="M195.193 181H197.5V177.133H199.183L201.25 181H203.796L201.479 176.76C202.72 176.227 203.407 175.146 203.407 173.654C203.407 171.487 201.974 170.091 199.497 170.091H195.193V181ZM197.5 175.279V171.977H199.055C200.387 171.977 201.031 172.568 201.031 173.654C201.031 174.736 200.387 175.279 199.066 175.279H197.5ZM208.591 181.16C210.615 181.16 211.979 180.174 212.299 178.656L210.2 178.518C209.971 179.141 209.385 179.466 208.629 179.466C207.494 179.466 206.775 178.715 206.775 177.495V177.49H212.347V176.866C212.347 174.086 210.663 172.712 208.501 172.712C206.093 172.712 204.532 174.422 204.532 176.946C204.532 179.54 206.072 181.16 208.591 181.16ZM206.775 176.083C206.823 175.151 207.531 174.406 208.538 174.406C209.523 174.406 210.205 175.109 210.211 176.083H206.775ZM220.635 175.151C220.433 173.644 219.218 172.712 217.151 172.712C215.058 172.712 213.678 173.681 213.684 175.258C213.678 176.483 214.451 177.277 216.049 177.596L217.466 177.879C218.179 178.022 218.504 178.283 218.515 178.694C218.504 179.178 217.977 179.525 217.183 179.525C216.374 179.525 215.836 179.178 215.697 178.512L213.465 178.63C213.678 180.196 215.01 181.16 217.178 181.16C219.298 181.16 220.816 180.078 220.821 178.464C220.816 177.282 220.044 176.574 218.456 176.249L216.975 175.95C216.214 175.785 215.931 175.524 215.937 175.13C215.931 174.64 216.485 174.32 217.189 174.32C217.977 174.32 218.446 174.752 218.558 175.279L220.635 175.151ZM222.25 184.068H224.519V179.69H224.589C224.903 180.371 225.59 181.133 226.911 181.133C228.775 181.133 230.23 179.658 230.23 176.92C230.23 174.107 228.712 172.712 226.916 172.712C225.547 172.712 224.892 173.527 224.589 174.192H224.487V172.818H222.25V184.068ZM224.472 176.909C224.472 175.45 225.089 174.517 226.192 174.517C227.316 174.517 227.913 175.492 227.913 176.909C227.913 178.337 227.305 179.327 226.192 179.327C225.1 179.327 224.472 178.369 224.472 176.909ZM235.439 181.16C237.921 181.16 239.466 179.461 239.466 176.941C239.466 174.406 237.921 172.712 235.439 172.712C232.957 172.712 231.412 174.406 231.412 176.941C231.412 179.461 232.957 181.16 235.439 181.16ZM235.45 179.402C234.305 179.402 233.719 178.353 233.719 176.925C233.719 175.498 234.305 174.443 235.45 174.443C236.574 174.443 237.16 175.498 237.16 176.925C237.16 178.353 236.574 179.402 235.45 179.402ZM243.211 176.27C243.216 175.215 243.845 174.597 244.761 174.597C245.672 174.597 246.22 175.194 246.215 176.195V181H248.484V175.79C248.484 173.884 247.366 172.712 245.661 172.712C244.447 172.712 243.568 173.308 243.2 174.262H243.104V172.818H240.942V181H243.211V176.27ZM257.08 175.151C256.878 173.644 255.663 172.712 253.597 172.712C251.503 172.712 250.124 173.681 250.129 175.258C250.124 176.483 250.896 177.277 252.494 177.596L253.911 177.879C254.625 178.022 254.95 178.283 254.96 178.694C254.95 179.178 254.422 179.525 253.629 179.525C252.819 179.525 252.281 179.178 252.142 178.512L249.911 178.63C250.124 180.196 251.455 181.16 253.623 181.16C255.743 181.16 257.261 180.078 257.267 178.464C257.261 177.282 256.489 176.574 254.902 176.249L253.421 175.95C252.659 175.785 252.377 175.524 252.382 175.13C252.377 174.64 252.931 174.32 253.634 174.32C254.422 174.32 254.891 174.752 255.003 175.279L257.08 175.151ZM262.424 181.16C264.448 181.16 265.812 180.174 266.132 178.656L264.033 178.518C263.804 179.141 263.218 179.466 262.462 179.466C261.327 179.466 260.608 178.715 260.608 177.495V177.49H266.18V176.866C266.18 174.086 264.496 172.712 262.334 172.712C259.926 172.712 258.365 174.422 258.365 176.946C258.365 179.54 259.905 181.16 262.424 181.16ZM260.608 176.083C260.656 175.151 261.364 174.406 262.371 174.406C263.356 174.406 264.038 175.109 264.044 176.083H260.608Z" fill="#3A3836"/>
<path d="M201.089 121H203.396V117.133H205.079L207.146 121H209.692L207.375 116.76C208.616 116.227 209.303 115.146 209.303 113.654C209.303 111.487 207.87 110.091 205.393 110.091H201.089V121ZM203.396 115.279V111.977H204.951C206.283 111.977 206.927 112.568 206.927 113.654C206.927 114.736 206.283 115.279 204.962 115.279H203.396ZM214.487 121.16C216.511 121.16 217.875 120.174 218.195 118.656L216.096 118.518C215.867 119.141 215.281 119.466 214.525 119.466C213.39 119.466 212.671 118.715 212.671 117.495V117.49H218.243V116.866C218.243 114.086 216.559 112.712 214.397 112.712C211.989 112.712 210.428 114.422 210.428 116.946C210.428 119.54 211.968 121.16 214.487 121.16ZM212.671 116.083C212.719 115.151 213.427 114.406 214.434 114.406C215.419 114.406 216.101 115.109 216.107 116.083H212.671ZM227.399 124.068V112.818H225.162V114.192H225.061C224.757 113.527 224.102 112.712 222.733 112.712C220.938 112.712 219.42 114.107 219.42 116.92C219.42 119.658 220.874 121.133 222.738 121.133C224.059 121.133 224.746 120.371 225.061 119.69H225.13V124.068H227.399ZM225.178 116.909C225.178 118.369 224.549 119.327 223.457 119.327C222.344 119.327 221.737 118.337 221.737 116.909C221.737 115.492 222.333 114.517 223.457 114.517C224.56 114.517 225.178 115.45 225.178 116.909ZM234.462 117.516C234.468 118.614 233.717 119.189 232.902 119.189C232.044 119.189 231.49 118.587 231.485 117.623V112.818H229.216V118.028C229.221 119.94 230.34 121.107 231.985 121.107C233.216 121.107 234.1 120.473 234.468 119.514H234.553V121H236.732V112.818H234.462V117.516ZM242.275 121.16C244.299 121.16 245.663 120.174 245.983 118.656L243.884 118.518C243.655 119.141 243.069 119.466 242.313 119.466C241.178 119.466 240.459 118.715 240.459 117.495V117.49H246.031V116.866C246.031 114.086 244.347 112.712 242.185 112.712C239.777 112.712 238.216 114.422 238.216 116.946C238.216 119.54 239.756 121.16 242.275 121.16ZM240.459 116.083C240.507 115.151 241.215 114.406 242.222 114.406C243.208 114.406 243.889 115.109 243.895 116.083H240.459ZM254.319 115.151C254.117 113.644 252.902 112.712 250.835 112.712C248.742 112.712 247.362 113.681 247.368 115.258C247.362 116.483 248.135 117.277 249.733 117.596L251.15 117.879C251.863 118.022 252.188 118.283 252.199 118.694C252.188 119.178 251.661 119.525 250.867 119.525C250.058 119.525 249.52 119.178 249.381 118.512L247.149 118.63C247.362 120.196 248.694 121.16 250.862 121.16C252.982 121.16 254.5 120.078 254.505 118.464C254.5 117.282 253.728 116.574 252.14 116.249L250.66 115.95C249.898 115.785 249.616 115.524 249.621 115.13C249.616 114.64 250.17 114.32 250.873 114.32C251.661 114.32 252.13 114.752 252.242 115.279L254.319 115.151ZM260.286 112.818H258.747V110.858H256.478V112.818H255.359V114.523H256.478V118.784C256.467 120.387 257.559 121.181 259.205 121.112C259.791 121.091 260.206 120.973 260.435 120.899L260.079 119.21C259.967 119.232 259.727 119.285 259.514 119.285C259.061 119.285 258.747 119.114 258.747 118.486V114.523H260.286V112.818Z" fill="#3A3836"/>
<path d="M614.574 254.802L611.839 250.371C611.839 250.371 605.325 242.685 599.857 239.821C599.857 239.821 605.199 237.087 607.282 226.402L611.579 225.491V220.018L606.497 218.065C606.497 218.065 603.372 202.043 584.221 200.48C584.221 200.48 566.636 200.48 561.554 219.237L557.518 221.32L557.127 226.402L561.818 228.746C561.818 228.746 564.943 236.59 566.945 238.128C566.945 238.128 556.606 245.419 556.216 247.376C555.825 249.329 541.495 262.227 546.056 274.08C550.617 285.932 560.126 284.5 560.126 284.5L563.812 283.352L561.119 320.146C561.119 320.146 559.825 328.1 570.729 329.748C581.629 331.392 580.775 316.476 580.775 316.476L582.243 295.115L588.969 295.481L592.171 318.893C592.171 318.893 592.041 330.354 603.763 329.052C603.763 329.052 611.709 327.62 610.928 316.158L605.195 279.556C605.195 279.556 610.017 279.165 611.97 273.563L613.402 273.042C613.402 273.042 620.437 265.356 614.574 254.806V254.802ZM564.406 269.848L562.05 268.119L565.244 263.513L564.406 269.844V269.848Z" fill="white"/>
<path d="M597.806 278.047L596.268 282.201C596.126 282.624 596.248 283.092 596.586 283.393C597.249 283.983 598.498 284.776 600.166 284.386C600.545 284.296 600.842 283.999 600.956 283.629L602.103 279.869" fill="#D9D9D9"/>
<path d="M605.582 279.731C606.041 284.854 606.745 289.952 607.693 295.005L610.838 317.884C611.074 319.141 611.103 320.439 610.802 321.684C609.805 325.813 606.135 328.926 601.68 329.032C597.513 329.13 595.247 327.502 593.571 323.926C592.826 322.343 592.366 320.638 592.106 318.909L588.53 295.375H579.9" stroke="#3A3836" stroke-width="2" stroke-linecap="round" stroke-linejoin="round"/>
<path d="M582.105 295.379L580.587 319.771C580.498 321.224 580.197 322.664 579.599 323.991C577.813 327.937 574.59 329.374 570.733 329.459C565.383 329.573 561.013 325.207 561.123 319.857L563.816 283.063" stroke="#3A3836" stroke-width="2" stroke-linecap="round" stroke-linejoin="round"/>
<path d="M603.669 279.556C608.656 279.556 612.698 275.514 612.698 270.528C612.698 265.541 608.656 261.499 603.669 261.499C598.683 261.499 594.641 265.541 594.641 270.528C594.641 275.514 598.683 279.556 603.669 279.556Z" stroke="#3A3836" stroke-width="2" stroke-linecap="round" stroke-linejoin="round"/>
<path d="M612.279 250.998C612.596 251.437 612.901 251.885 613.198 252.349C617.597 259.2 619.708 268.554 608.702 278.128" stroke="#3A3836" stroke-width="2" stroke-linecap="round" stroke-linejoin="round"/>
<path d="M600.589 240.57C600.589 240.57 604.605 242.942 607.286 245.424C607.498 245.623 607.718 245.826 607.933 246.034" stroke="#3A3836" stroke-width="2" stroke-linecap="round" stroke-linejoin="round"/>
<path d="M605.496 238.024C606.29 235.324 609.156 233.811 611.833 234.678L617.113 236.389C619.79 237.256 621.225 240.161 620.285 242.814L616.774 252.729C615.508 256.303 611.626 258.22 608.018 257.051L607.085 256.749C603.477 255.58 601.456 251.752 602.527 248.114L605.496 238.024Z" fill="#D9D9D9" stroke="#3A3836" stroke-width="2"/>
<rect x="611.052" y="239.574" width="3.82531" height="11.5025" rx="1.91266" transform="rotate(17.9489 611.052 239.574)" fill="white" stroke="#3A3836" stroke-width="2"/>
<path d="M603.376 261.108L604.955 256.409C604.955 256.409 607.803 255.534 609.5 257.833L608.08 262.146" fill="#D9D9D9"/>
<path d="M603.201 261.381L605 256.092C605 256.092 607.848 255.217 609.545 257.516L607.994 262.138" stroke="#3A3836" stroke-width="2" stroke-linecap="round" stroke-linejoin="round"/>
<path d="M601.847 261.043L600.947 255.986C600.947 255.986 599.393 248.809 601.777 241.969" stroke="#3A3836" stroke-width="2" stroke-linecap="round" stroke-linejoin="round"/>
<path d="M597.774 277.851L596.211 282.469C596.069 282.892 596.191 283.36 596.529 283.661C597.192 284.251 598.441 285.045 600.109 284.654C600.488 284.565 600.785 284.268 600.899 283.897L602.172 279.699" stroke="#3A3836" stroke-width="2" stroke-linecap="round" stroke-linejoin="round"/>
<path d="M599.105 282.522C599.496 282.522 599.813 282.205 599.813 281.814C599.813 281.423 599.496 281.106 599.105 281.106C598.714 281.106 598.397 281.423 598.397 281.814C598.397 282.205 598.714 282.522 599.105 282.522Z" fill="#686868"/>
<path d="M579.53 246.107C569.431 243.951 561.334 234.584 561.334 223.819C561.334 211.132 571.64 200.851 584.355 200.851C597.07 200.851 607.376 211.136 607.376 223.819C607.376 233.962 600.032 242.657 590.889 245.7C590.889 245.7 586.418 247.58 579.521 246.107H579.53Z" stroke="#3A3836" stroke-width="2" stroke-linecap="round" stroke-linejoin="round"/>
<path d="M583.981 197.742L584.074 200.741" stroke="#3A3836" stroke-width="2" stroke-linecap="round" stroke-linejoin="round"/>
<path opacity="0.7" d="M583.993 197.543C585.761 197.543 587.195 196.102 587.195 194.324C587.195 192.547 585.761 191.106 583.993 191.106C582.225 191.106 580.791 192.547 580.791 194.324C580.791 196.102 582.225 197.543 583.993 197.543Z" fill="#FC6D37"/>
<path d="M583.993 197.543C585.761 197.543 587.195 196.102 587.195 194.324C587.195 192.547 585.761 191.106 583.993 191.106C582.225 191.106 580.791 192.547 580.791 194.324C580.791 196.102 582.225 197.543 583.993 197.543Z" fill="#FB8553" stroke="#3A3836" stroke-width="2" stroke-miterlimit="10"/>
<path d="M602.428 224.71C602.652 231.932 594.881 240.045 584.998 240.35C575.115 240.659 566.855 233.042 566.632 225.824C566.408 218.607 566.632 212.739 584.119 212.194C600.821 211.682 602.205 217.492 602.432 224.71H602.428Z" stroke="#3A3836" stroke-width="2" stroke-linecap="round" stroke-linejoin="round"/>
<path d="M607.172 218.285L611.046 219.457C611.632 219.725 612.014 220.352 612.014 221.048V224.25C612.014 225.027 611.542 225.706 610.859 225.914L607.518 226.919" stroke="#3A3836" stroke-width="2" stroke-linecap="round" stroke-linejoin="round"/>
<path d="M561.224 219.388L558.075 220.832C557.489 221.101 557.107 221.727 557.107 222.423V225.625C557.107 226.402 557.579 227.082 558.262 227.289L561.603 228.294" stroke="#3A3836" stroke-width="2" stroke-linecap="round" stroke-linejoin="round"/>
<path d="M566.245 238.584C566.245 238.584 547.106 251.409 545.104 268.025C544.628 271.968 545.796 275.972 548.404 278.966C550.345 281.192 553.241 283.478 557.335 284.373C561.143 285.208 565.004 283.165 566.599 279.605C568.422 275.54 566.705 270.808 562.754 268.75L555.805 263.578" stroke="#3A3836" stroke-width="2" stroke-linecap="round" stroke-linejoin="round"/>
<path d="M561.383 242.921C561.383 242.921 565.216 246.079 565.692 257.691L565.667 258.631L564.565 269.645" stroke="#3A3836" stroke-width="2" stroke-linecap="round" stroke-linejoin="round"/>
<path d="M568.857 240.533C568.857 240.533 572.063 249.268 565.224 262.943" stroke="#3A3836" stroke-width="2" stroke-linecap="round" stroke-linejoin="round"/>
<path d="M595.092 244.382C595.092 244.382 595.223 257.731 601.301 260.095" stroke="#3A3836" stroke-width="2" stroke-linecap="round" stroke-linejoin="round"/>
<path d="M591.894 250.656H588.298C587.823 250.656 587.439 251.04 587.439 251.514V255.258C587.439 255.732 587.823 256.116 588.298 256.116H591.894C592.368 256.116 592.753 255.732 592.753 255.258V251.514C592.753 251.04 592.368 250.656 591.894 250.656Z" stroke="#3A3836" stroke-width="2" stroke-linecap="round" stroke-linejoin="round"/>
<g style="mix-blend-mode:multiply">
<path d="M569.72 248.43C569.72 248.43 583.012 251.23 590.893 245.7C590.893 245.7 584.168 249.541 570.672 242.238L569.085 240.968C569.085 240.968 570.831 246.05 569.72 248.43Z" fill="#E1E1E1"/>
</g>
<path d="M562.16 267.94L563.19 266.308L565.13 263.24" stroke="#3A3836" stroke-width="2" stroke-linecap="round" stroke-linejoin="round"/>
<path d="M574.153 174.049C573.45 173.892 572.749 173.8 572 173.8C566.477 173.8 562 178.277 562 183.8C562 186.847 563.444 189.535 565.667 191.333C567.472 192.794 565.667 202.467 565.667 202.467H602.334C602.334 202.467 600.528 192.794 602.334 191.333C604.556 189.535 606 186.847 606 183.8C606 178.276 601.523 173.8 596 173.8C595.251 173.8 594.55 173.892 593.847 174.048" fill="white"/>
<path d="M574.153 174.049C573.45 173.892 572.749 173.8 572 173.8C566.477 173.8 562 178.277 562 183.8C562 186.847 563.444 189.535 565.667 191.333C567.472 192.794 565.667 202.467 565.667 202.467H602.334C602.334 202.467 600.528 192.794 602.334 191.333C604.556 189.535 606 186.847 606 183.8C606 178.276 601.523 173.8 596 173.8C595.251 173.8 594.55 173.892 593.847 174.048" stroke="#3A3836" stroke-width="2" stroke-linecap="round" stroke-linejoin="round"/>
<path d="M584 200.467V193.133" stroke="#3A3836" stroke-width="2" stroke-linecap="round" stroke-linejoin="round"/>
<path d="M577.4 201.467V194.133" stroke="#3A3836" stroke-width="2" stroke-linecap="round" stroke-linejoin="round"/>
<path d="M590.6 201.467V194.133" stroke="#3A3836" stroke-width="2" stroke-linecap="round" stroke-linejoin="round"/>
<path d="M574.834 182.004C574.298 180.778 574 179.424 574 178C574 172.477 578.477 168 584 168C589.523 168 594 172.477 594 178C594 179.422 593.703 180.775 593.167 182.001" fill="white"/>
<path d="M574.834 182.004C574.298 180.778 574 179.424 574 178C574 172.477 578.477 168 584 168C589.523 168 594 172.477 594 178C594 179.422 593.703 180.775 593.167 182.001" stroke="#3A3836" stroke-width="2" stroke-linecap="round" stroke-linejoin="round"/>
<path d="M584 199.2C577.862 199.2 569.362 200.878 565.44 201.729C563.681 202.11 562.467 203.67 562.467 205.445C562.467 207.94 564.79 209.767 567.202 209.266C571.487 208.377 578.715 207.067 584 207.067C589.285 207.067 596.513 208.377 600.798 209.266C603.21 209.767 605.533 207.94 605.533 205.445C605.533 203.67 604.319 202.11 602.56 201.729C598.638 200.878 590.138 199.2 584 199.2Z" fill="white" stroke="#3A3836" stroke-width="2"/>
<path d="M82 326H107" stroke="#3A3836" stroke-width="2" stroke-linecap="round"/>
<path d="M328 326H353" stroke="#3A3836" stroke-width="2" stroke-linecap="round"/>
<path d="M145 326H170" stroke="#3A3836" stroke-width="2" stroke-linecap="round"/>
<path d="M404 326H450" stroke="#3A3836" stroke-width="2" stroke-linecap="round"/>
<path d="M516 326H562" stroke="#3A3836" stroke-width="2" stroke-linecap="round"/>
<path d="M609 326H616" stroke="#3A3836" stroke-width="2" stroke-linecap="round"/>
<path d="M579 326H594" stroke="#3A3836" stroke-width="2" stroke-linecap="round"/>
<path d="M623 326H627" stroke="#3A3836" stroke-width="2" stroke-linecap="round"/>
<path d="M178 326L182 326" stroke="#3A3836" stroke-width="2" stroke-linecap="round"/>
<path d="M313 326L317 326" stroke="#3A3836" stroke-width="2" stroke-linecap="round"/>
<path d="M302 326L306 326" stroke="#3A3836" stroke-width="2" stroke-linecap="round"/>
<path d="M123 326H130" stroke="#3A3836" stroke-width="2" stroke-linecap="round"/>
<path d="M540.066 114.309H551.991C553.096 114.309 553.991 115.204 553.991 116.309V123.366C553.991 124.47 553.096 125.366 551.991 125.366H540.066V114.309Z" fill="url(#paint4_linear_95_6378)"/>
<path d="M539.644 100.897H551.819C552.923 100.897 553.819 101.792 553.819 102.897V109.214C553.819 110.319 552.923 111.214 551.819 111.214H539.644V100.897Z" fill="url(#paint5_linear_95_6378)"/>
<path d="M513 100.75H551C552.795 100.75 554.25 102.205 554.25 104V108.418C554.25 110.213 552.795 111.668 551 111.668H513C511.205 111.668 509.75 110.213 509.75 108.418V104C509.75 102.205 511.205 100.75 513 100.75Z" stroke="#6B6B6B" stroke-width="1.5"/>
<path d="M513 114.359H551C552.795 114.359 554.25 115.814 554.25 117.609V122.027C554.25 123.822 552.795 125.277 551 125.277H513C511.205 125.277 509.75 123.822 509.75 122.027V117.609C509.75 115.814 511.205 114.359 513 114.359Z" stroke="#6B6B6B" stroke-width="1.5"/>
<path d="M539.706 115.179V124.94" stroke="#6B6B6B" stroke-width="1.5" stroke-linecap="round"/>
<path d="M539.644 100.897V111.214" stroke="#6B6B6B" stroke-width="1.5" stroke-linecap="round"/>
<path d="M539.644 128.114H551.819C552.923 128.114 553.819 129.01 553.819 130.114V136.431C553.819 137.536 552.923 138.431 551.819 138.431H539.644V128.114Z" fill="url(#paint6_linear_95_6378)"/>
<path d="M513 127.967H551C552.795 127.967 554.25 129.422 554.25 131.217V135.635C554.25 137.43 552.795 138.885 551 138.885H513C511.205 138.885 509.75 137.43 509.75 135.635V131.217C509.75 129.422 511.205 127.967 513 127.967Z" stroke="#6B6B6B" stroke-width="1.5"/>
<path d="M539.644 128.114V138.431" stroke="#6B6B6B" stroke-width="1.5" stroke-linecap="round"/>
<circle cx="515.963" cy="106.213" r="1.60684" fill="#6B6B6B"/>
<circle cx="515.963" cy="119.818" r="1.60684" fill="#6B6B6B"/>
<circle cx="515.963" cy="133.422" r="1.60684" fill="#6B6B6B"/>
<path d="M521.024 171L521.834 168.512H525.77L526.58 171H529.052L525.291 160.091H522.319L518.553 171H521.024ZM522.42 166.712L523.762 162.584H523.847L525.19 166.712H522.42ZM530.365 171H532.671V167.463H534.61C537.119 167.463 538.578 165.966 538.578 163.788C538.578 161.62 537.146 160.091 534.669 160.091H530.365V171ZM532.671 165.615V161.977H534.227C535.558 161.977 536.203 162.701 536.203 163.788C536.203 164.869 535.558 165.615 534.237 165.615H532.671ZM542.383 160.091H540.077V171H542.383V160.091ZM514.969 181.228H517.18C517.148 179.284 515.55 177.942 513.121 177.942C510.729 177.942 508.977 179.263 508.987 181.244C508.982 182.853 510.117 183.775 511.96 184.217L513.147 184.515C514.335 184.803 514.996 185.143 515.001 185.879C514.996 186.678 514.239 187.221 513.068 187.221C511.869 187.221 511.006 186.667 510.932 185.575H508.7C508.758 187.935 510.447 189.154 513.094 189.154C515.758 189.154 517.324 187.881 517.329 185.884C517.324 184.067 515.955 183.103 514.058 182.677L513.078 182.443C512.13 182.224 511.336 181.873 511.352 181.09C511.352 180.387 511.976 179.87 513.105 179.87C514.207 179.87 514.884 180.371 514.969 181.228ZM522.566 189.16C524.591 189.16 525.954 188.174 526.274 186.656L524.175 186.518C523.946 187.141 523.36 187.466 522.604 187.466C521.469 187.466 520.75 186.715 520.75 185.495V185.49H526.322V184.866C526.322 182.086 524.638 180.712 522.476 180.712C520.068 180.712 518.507 182.422 518.507 184.946C518.507 187.54 520.047 189.16 522.566 189.16ZM520.75 184.083C520.798 183.151 521.506 182.406 522.513 182.406C523.499 182.406 524.18 183.109 524.186 184.083H520.75ZM527.803 189H530.072V184.371C530.072 183.364 530.807 182.672 531.808 182.672C532.122 182.672 532.554 182.725 532.767 182.794V180.781C532.565 180.733 532.282 180.701 532.053 180.701C531.137 180.701 530.386 181.234 530.088 182.246H530.002V180.818H527.803V189ZM541.817 180.818H539.415L537.721 186.672H537.636L535.936 180.818H533.539L536.4 189H538.957L541.817 180.818ZM546.429 189.16C548.453 189.16 549.816 188.174 550.136 186.656L548.037 186.518C547.808 187.141 547.222 187.466 546.466 187.466C545.331 187.466 544.612 186.715 544.612 185.495V185.49H550.184V184.866C550.184 182.086 548.501 180.712 546.338 180.712C543.93 180.712 542.37 182.422 542.37 184.946C542.37 187.54 543.909 189.16 546.429 189.16ZM544.612 184.083C544.66 183.151 545.369 182.406 546.375 182.406C547.361 182.406 548.043 183.109 548.048 184.083H544.612ZM551.665 189H553.934V184.371C553.934 183.364 554.669 182.672 555.67 182.672C555.985 182.672 556.416 182.725 556.629 182.794V180.781C556.427 180.733 556.145 180.701 555.916 180.701C554.999 180.701 554.248 181.234 553.95 182.246H553.865V180.818H551.665V189Z" fill="#3A3836"/>
<path d="M618.671 356.033C618.643 356.047 618.618 356.065 618.598 356.088C618.578 356.111 618.562 356.138 618.552 356.166C618.542 356.195 618.538 356.226 618.54 356.256C618.542 356.287 618.55 356.316 618.564 356.344C618.625 356.464 618.649 356.599 618.633 356.733C618.618 356.866 618.563 356.992 618.477 357.096C618.44 357.144 618.423 357.204 618.429 357.263C618.436 357.323 618.466 357.378 618.512 357.417C618.559 357.455 618.619 357.474 618.679 357.469C618.74 357.464 618.796 357.436 618.836 357.391C618.98 357.218 619.071 357.008 619.096 356.785C619.122 356.562 619.082 356.337 618.981 356.137C618.954 356.082 618.906 356.041 618.847 356.022C618.789 356.002 618.726 356.006 618.671 356.033V356.033Z" fill="#BCBCBC"/>
<path d="M609.71 346.165C598.675 344.76 588.581 352.5 587.166 363.457C585.751 374.413 593.545 384.43 604.58 385.835C615.615 387.241 625.71 379.501 627.124 368.547C628.538 357.594 620.744 347.571 609.71 346.165ZM613.857 358.64C613.484 358.645 613.127 358.795 612.863 359.058L605.388 366.476L603.794 364.893C611.158 357.601 612.486 357.531 613.857 358.64ZM605.692 366.741L613.145 359.341C613.34 359.148 613.605 359.039 613.88 359.039C614.156 359.039 614.42 359.148 614.615 359.341C614.715 359.44 614.794 359.56 614.846 359.691C614.898 359.822 614.923 359.962 614.918 360.103C614.914 360.244 614.88 360.383 614.819 360.51C614.759 360.638 614.672 360.752 614.566 360.845L606.678 367.722L605.692 366.741ZM606.246 367.896L604.4 368.292C604.378 368.296 604.355 368.294 604.335 368.285C604.315 368.275 604.298 368.26 604.287 368.24C604.276 368.221 604.272 368.198 604.276 368.176C604.279 368.154 604.289 368.134 604.305 368.118L605.387 367.043L606.246 367.896ZM601.54 367.132L603.508 365.178L604.983 366.642L601.66 367.352C601.633 367.358 601.604 367.355 601.578 367.343C601.552 367.331 601.531 367.311 601.517 367.287C601.504 367.262 601.499 367.233 601.503 367.206C601.507 367.178 601.52 367.152 601.54 367.132ZM595.421 377.231C595.397 377.229 595.374 377.219 595.355 377.204C595.336 377.189 595.322 377.169 595.314 377.146C595.306 377.124 595.305 377.099 595.311 377.076C595.316 377.053 595.328 377.031 595.345 377.015L596.933 375.438L598.984 377.474L595.421 377.231ZM599.492 375.135C599.416 375.174 599.356 375.237 599.32 375.314C599.284 375.391 599.275 375.477 599.295 375.559L599.635 377.003C599.644 377.047 599.638 377.092 599.619 377.133C599.6 377.174 599.569 377.207 599.529 377.229C599.49 377.251 599.445 377.26 599.4 377.254C599.355 377.249 599.313 377.229 599.28 377.199L597.22 375.153L603.533 368.886L606.589 368.234L608.055 369.69C605.947 371.522 603.066 373.354 599.492 375.134V375.135ZM608.351 369.423L606.943 368.025L614.831 361.147C614.905 361.083 614.971 361.012 615.03 360.935C614.781 363.18 611.623 366.345 608.353 369.421L608.351 369.423ZM614.489 358.653C613.936 358.099 613.619 357.355 613.603 356.576C613.588 355.796 613.875 355.04 614.406 354.465C614.936 353.89 615.67 353.539 616.454 353.486C617.238 353.433 618.012 353.681 618.616 354.18L615.909 356.868C615.89 356.887 615.875 356.909 615.865 356.933C615.855 356.957 615.85 356.983 615.85 357.009C615.85 357.036 615.855 357.062 615.865 357.086C615.875 357.11 615.89 357.132 615.909 357.15L618.002 359.229C617.43 359.509 616.784 359.604 616.154 359.501C615.525 359.397 614.944 359.1 614.493 358.652L614.489 358.653ZM618.816 358.653C618.677 358.79 618.526 358.914 618.363 359.021L616.335 357.008L618.909 354.453C619.441 355.03 619.728 355.789 619.711 356.571C619.693 357.353 619.372 358.099 618.815 358.652L618.816 358.653Z" fill="#BCBCBC"/>
<defs>
<linearGradient id="paint0_linear_95_6378" x1="80" y1="131" x2="80" y2="136" gradientUnits="userSpaceOnUse">
<stop stop-color="#FF6C37"/>
<stop offset="1" stop-color="#FFB400"/>
</linearGradient>
<linearGradient id="paint1_linear_95_6378" x1="87.5" y1="101" x2="87.5" y2="104" gradientUnits="userSpaceOnUse">
<stop stop-color="#FF6C37"/>
<stop offset="1" stop-color="#FFB400"/>
</linearGradient>
<linearGradient id="paint2_linear_95_6378" x1="68.5" y1="127" x2="68.5" y2="130" gradientUnits="userSpaceOnUse">
<stop stop-color="#FF6C37"/>
<stop offset="1" stop-color="#FFB400"/>
</linearGradient>
<linearGradient id="paint3_linear_95_6378" x1="382" y1="109.2" x2="382" y2="130.97" gradientUnits="userSpaceOnUse">
<stop stop-color="#FF6C37"/>
<stop offset="1" stop-color="#FFB400"/>
</linearGradient>
<linearGradient id="paint4_linear_95_6378" x1="547.029" y1="114.309" x2="547.029" y2="125.366" gradientUnits="userSpaceOnUse">
<stop stop-color="#FF6C37"/>
<stop offset="1" stop-color="#FFB400"/>
</linearGradient>
<linearGradient id="paint5_linear_95_6378" x1="546.731" y1="100.897" x2="546.731" y2="111.214" gradientUnits="userSpaceOnUse">
<stop stop-color="#FF6C37"/>
<stop offset="1" stop-color="#FFB400"/>
</linearGradient>
<linearGradient id="paint6_linear_95_6378" x1="546.731" y1="128.114" x2="546.731" y2="138.431" gradientUnits="userSpaceOnUse">
<stop stop-color="#FF6C37"/>
<stop offset="1" stop-color="#FFB400"/>
</linearGradient>
</defs>
</svg>
